<?xml version="1.0" standalone="no"?>
<!DOCTYPE svg PUBLIC "-//W3C//DTD SVG 1.0//EN" "http://www.w3.org/TR/2001/REC-SVG-20010904/DTD/svg10.dtd">
<svg xmlns="http://www.w3.org/2000/svg" xmlns:xlink="http://www.w3.org/1999/xlink" width="500" zoomAndPan="magnify" viewBox="0 0 500 500" height="500" preserveAspectRatio="xMidYMid meet" version="1.0" xmlns:inkscape="http://www.inkscape.org/namespaces/inkscape">
<desc>CopyRight:SVG Design Editor;
configurationStart;Unit=smInches;Dpi=96;Division=4;Grid=True;Zoom=1;CanvasW=500;CanvasH=500;configurationEnd;</desc>
<defs xmlns:inkscape="http://www.inkscape.org/namespaces/inkscape">
<g id="group_0" xmlns:inkscape="http://www.inkscape.org/namespaces/inkscape">
</g>
<clipPath id="1" xmlns:inkscape="http://www.inkscape.org/namespaces/inkscape">
<path d="M 10 91 L 366 91 L 366 341.988281 L 10 341.988281 Z M 10 91 " clip-rule="nonzero" xmlns:inkscape="http://www.inkscape.org/namespaces/inkscape">
</path>
</clipPath>
<clipPath id="2" xmlns:inkscape="http://www.inkscape.org/namespaces/inkscape">
<path d="M 10 91 L 366 91 L 366 341.988281 L 10 341.988281 Z M 10 91 " clip-rule="nonzero" xmlns:inkscape="http://www.inkscape.org/namespaces/inkscape">
</path>
</clipPath>
</defs>
<g isVisble = "True" inkscape:label = "logo Default Layer" inkscape:groupmode = "layer" ><rect style="fill:#FFFFFF;stroke:Black; stroke-width:1" x = "50" y = "50" width = "2.083333in" height = "1.041667in" transform = "matrix(2.132316,0,0,2.132316,-79.84737,-47.84744)" vector-effect="non-scaling-stroke" pen = "2.132339,2.13234" />
<g id="group_20">
<g id="group_23">
<g id="group_22">
<g id="group_21">
<path style="fill:#1E1F20;stroke:none; stroke-width:1" d="m1944.21,409.47c0,53.48 0,106.96 0,160.45c0,68.19 0,136.39 0,204.59c0,76.35 0,152.69 0,229.04c0,77.82 0,155.65 0,233.47c0,73.21 0,146.42 0,219.63c0,62.46 0,124.91 0,187.37c0,45.02 0,90.04 0,135.06c0,21.15 0.07,42.3 0,63.45c-0.11,30.35 -19.51,57.83 -50.88,61.97c-5.68,0.75 -11.58,0.45 -17.3,0.45c-27.57,0 -55.15,0 -82.73,0c-31.13,0 -62.26,0 -93.39,0c0,14.32 0,28.63 0,42.94c0,8.78 0,17.56 0,26.34c0,6.68 -5.72,9.68 -11.43,6.6c-6.47,-3.49 -11,-11.79 -11,-19.06c0,-18.94 0,-37.88 0,-56.82c-10.98,0 -21.95,0 -32.92,0c-65.35,0 -130.7,0 -196.05,0c-14.32,0 -28.63,0 -42.94,0c0,14.32 0,28.63 0,42.94c0,8.78 0,17.56 0,26.34c0,6.68 -5.73,9.68 -11.44,6.6c-6.47,-3.49 -11,-11.79 -11,-19.06c0,-18.94 0,-37.88 0,-56.82c-53.31,0 -106.62,0 -159.93,0c-37.33,0 -74.65,0 -111.98,0c0,14.32 0,28.63 0,42.94c0,8.78 0,17.56 0,26.34c0,6.68 -5.73,9.68 -11.44,6.6c-6.46,-3.49 -11,-11.79 -11,-19.06c0,-18.94 0,-37.88 0,-56.82c-33.48,0 -66.97,0 -100.45,0c-57.15,0 -114.3,0 -171.46,0c0,14.32 0,28.63 0,42.94c0,8.78 0,17.56 0,26.34c0,6.68 -5.73,9.68 -11.43,6.6c-6.47,-3.49 -11,-11.79 -11,-19.06c0,-18.94 0,-37.88 0,-56.82c-10.24,0 -20.48,0 -30.72,0c-65.65,0 -131.29,0 -196.94,0c-14.75,0 -29.5,0 -44.25,0c0,14.32 0,28.63 0,42.94c0,8.78 0,17.56 0,26.34c0,6.68 -5.73,9.68 -11.43,6.6c-6.47,-3.49 -11,-11.79 -11,-19.06c0,-18.94 0,-37.88 0,-56.82c-27.56,0 -55.12,0 -82.68,0c-27.53,0 -55.05,0 -82.58,0c-5.96,0 -11.97,0.19 -17.9,-0.44c-36.36,-3.88 -60.95,-38.83 -61.13,-73.73c-0.11,-20.31 0,-40.62 0,-60.93c0,-44.36 0,-88.72 0,-133.08c0,-61.76 0,-123.52 0,-185.28c0,-73.2 0,-146.4 0,-219.6c0,-78.05 0,-156.1 0,-234.15c0,-76.23 0,-152.45 0,-228.68c0,-68.55 0,-137.11 0,-205.66c0,-54.2 0,-108.4 0,-162.6c0,-33.36 0,-66.72 0,-100.08c0,-6.97 -0.03,-13.93 0,-20.9c0.14,-31.75 22.22,-60.46 55.42,-62c15.25,-0.72 30.67,-0.06 45.93,-0.06c39.83,0 79.66,0 119.49,0c58.53,0 117.06,0 175.59,0c71.31,0 142.62,0 213.92,0c77.55,0 155.1,0 232.66,0c77.17,0 154.35,0 231.52,0c70.78,0 141.55,0 212.32,0c58.26,0 116.52,0 174.78,0c39.13,0 78.25,0 117.37,0c13.66,0 27.31,0 40.97,0c39.45,0.87 68.22,35.61 68.44,73.92c0.04,6.51 0,13.02 0,19.53c0,32.76 0,65.51 0,98.26m-237.81,-152.36c0,18.92 0,37.84 0,56.76c0,38.04 0,76.09 0,114.13c0,4.92 0,9.83 0,14.75c0,1.15 -0.01,2.31 0,3.46c0,0.19 0,0.39 0,0.58c0,0.21 0,0.43 0.01,0.65c0.03,0.14 0.14,1.13 0.18,1.33c0.04,0.22 0.08,0.42 0.11,0.58c0.02,0.06 0.04,0.11 0.06,0.18c0.05,0.17 0.21,0.53 0.38,0.89c0.23,0.34 0.48,0.71 0.6,0.86c0.07,0.09 0.13,0.16 0.18,0.23c0.25,0.24 0.53,0.47 0.81,0.69c0.08,0.07 0.17,0.14 0.26,0.21c0.07,0.05 0.13,0.1 0.19,0.15c-0.04,-0.03 -0.06,-0.05 -0.09,-0.08c0.16,0.13 0.31,0.23 0.4,0.29c0.75,0.42 1.49,0.87 2.27,1.24c0.33,0.15 0.57,0.27 0.77,0.37c0.03,-0.02 0.2,0.01 0.62,0.14c2.22,0.67 4.3,1.03 6.57,1.05c3.27,0.03 6.54,0 9.81,0c35.75,0 71.51,0 107.27,0c19.1,0 38.2,0 57.3,0c3.55,0 7.11,-0.05 10.67,-0.1c-18.39,-18.39 -36.78,-36.78 -55.17,-55.16c-42.68,-42.69 -85.37,-85.38 -128.05,-128.06c-5.05,-5.05 -10.1,-10.1 -15.15,-15.14l0,0zm27.5,1473.52c-0.07,-0.24 -0.39,-2.68 -0.39,-2.67c-0.17,-1.04 -0.4,-2.07 -0.63,-3.09c0.27,1.24 -0.54,-1.94 -0.65,-2.27c-0.44,-1.25 -0.95,-2.46 -1.44,-3.69c-0.06,-0.15 -0.11,-0.28 -0.15,-0.4c-0.1,-0.15 -0.22,-0.34 -0.36,-0.56c-0.46,-0.74 -0.85,-1.52 -1.3,-2.26c-0.23,-0.37 -0.47,-0.73 -0.7,-1.1c-0.13,-0.17 -0.34,-0.44 -0.62,-0.84c-0.85,-0.97 -1.67,-1.99 -2.49,-2.99c-0.17,-0.2 -0.31,-0.37 -0.42,-0.51c-0.14,-0.12 -0.31,-0.26 -0.53,-0.44c-0.99,-0.85 -1.92,-1.74 -2.93,-2.56c-0.09,-0.07 -2.3,-1.69 -2.04,-1.55c-4.1,-2.71 -7.82,-4.43 -11.82,-5.62c-19.07,-5.65 -40.38,0.86 -52.97,16.33c-6.15,7.56 -10.3,17.28 -10.93,25.96c-0.18,2.52 -0.24,5.08 -0.05,7.6c0.04,0 0.4,2.69 0.39,2.67c0.19,1.11 0.44,2.2 0.67,3.3c0.06,0.25 0.08,0.41 0.1,0.51c0.03,0.1 0.06,0.18 0.1,0.3c0.43,1.25 0.86,2.5 1.35,3.73c0.15,0.36 0.9,1.81 1.11,2.25c0.63,1.1 1.24,2.2 1.9,3.29c0.08,0.13 0.13,0.23 0.19,0.34c0.12,0.13 0.27,0.29 0.44,0.49c0.85,0.97 1.67,2 2.49,2.99c0.09,0.1 0.23,0.26 0.39,0.41c0.81,0.78 1.64,1.54 2.49,2.27c2.74,2.33 7.43,5.31 11.09,6.74c3.68,1.43 7.46,2.38 11.29,2.88c0,-1.71 0,-3.42 0,-5.13c0,-8.78 0,-17.56 0,-26.34c0,-6.68 5.72,-9.68 11.43,-6.6c6.47,3.49 11,11.79 11,19.06c0,5.65 0,11.3 0,16.95c8.93,-2.94 17.14,-8.66 23.02,-15.88c7.31,-9 10.95,-19.37 11.08,-30.12c-0.01,-1.15 -0.03,-2.31 -0.11,-3.45l0,0zm-81.09,39.83c0.37,0.37 0.65,0.62 0,0l0,0l0,0zm-213.26,-39.83c-0.06,-0.24 -0.38,-2.68 -0.38,-2.67c-0.18,-1.04 -0.4,-2.07 -0.63,-3.09c0.26,1.24 -0.55,-1.94 -0.66,-2.27c-0.44,-1.25 -0.95,-2.46 -1.43,-3.69c-0.06,-0.15 -0.11,-0.28 -0.16,-0.4c-0.1,-0.15 -0.22,-0.34 -0.36,-0.56c-0.45,-0.74 -0.85,-1.52 -1.3,-2.26c-0.22,-0.37 -0.47,-0.73 -0.7,-1.1c-0.13,-0.17 -0.33,-0.44 -0.62,-0.84c-0.85,-0.97 -1.67,-1.99 -2.49,-2.99c-0.17,-0.2 -0.31,-0.37 -0.42,-0.51c-0.14,-0.12 -0.31,-0.26 -0.53,-0.44c-0.98,-0.85 -1.92,-1.74 -2.93,-2.56c-0.09,-0.07 -2.3,-1.69 -2.04,-1.55c-4.1,-2.71 -7.82,-4.43 -11.82,-5.62c-19.07,-5.65 -40.38,0.86 -52.96,16.33c-6.16,7.56 -10.31,17.28 -10.94,25.96c-0.18,2.52 -0.23,5.08 -0.05,7.6c0.05,0 0.4,2.69 0.4,2.67c0.19,1.11 0.43,2.2 0.67,3.3c0.05,0.25 0.08,0.41 0.09,0.51c0.03,0.1 0.06,0.18 0.1,0.3c0.44,1.25 0.86,2.5 1.35,3.73c0.15,0.36 0.9,1.81 1.12,2.25c0.62,1.1 1.24,2.2 1.89,3.29c0.08,0.13 0.13,0.23 0.2,0.34c0.12,0.13 0.26,0.29 0.44,0.49c0.84,0.97 1.66,2 2.48,2.99c0.09,0.1 0.24,0.26 0.39,0.42c0.81,0.77 1.64,1.53 2.5,2.26c2.73,2.33 7.43,5.31 11.09,6.74c3.67,1.43 7.45,2.38 11.28,2.88c0,-1.71 0,-3.42 0,-5.13c0,-8.78 0,-17.56 0,-26.34c0,-6.68 5.73,-9.68 11.43,-6.6c6.47,3.49 11.01,11.79 11.01,19.06c0,5.65 0,11.3 0,16.95c8.93,-2.94 17.14,-8.66 23.01,-15.88c7.32,-9 10.95,-19.37 11.08,-30.12c-0.01,-1.15 -0.03,-2.31 -0.11,-3.45l0,0zm-81.09,39.83c0.37,0.37 0.65,0.62 0,0l0,0l0,0zm-213.25,-39.83c-0.07,-0.24 -0.39,-2.68 -0.39,-2.67c-0.18,-1.04 -0.4,-2.07 -0.63,-3.09c0.26,1.24 -0.54,-1.94 -0.66,-2.27c-0.43,-1.25 -0.95,-2.46 -1.43,-3.69c-0.06,-0.15 -0.11,-0.28 -0.16,-0.4c-0.1,-0.15 -0.21,-0.34 -0.35,-0.56c-0.46,-0.74 -0.85,-1.52 -1.3,-2.26c-0.23,-0.37 -0.47,-0.73 -0.71,-1.1c-0.13,-0.17 -0.33,-0.44 -0.62,-0.84c-0.85,-0.97 -1.66,-1.99 -2.49,-2.99c-0.17,-0.2 -0.3,-0.37 -0.41,-0.51c-0.15,-0.12 -0.32,-0.26 -0.54,-0.44c-0.98,-0.85 -1.92,-1.74 -2.93,-2.56c-0.08,-0.07 -2.3,-1.69 -2.04,-1.55c-4.09,-2.71 -7.81,-4.43 -11.82,-5.62c-19.07,-5.65 -40.38,0.86 -52.96,16.33c-6.15,7.56 -10.3,17.28 -10.94,25.96c-0.18,2.52 -0.23,5.08 -0.04,7.6c0.04,0 0.39,2.69 0.39,2.67c0.19,1.11 0.43,2.2 0.67,3.3c0.05,0.25 0.08,0.41 0.09,0.51c0.04,0.1 0.07,0.18 0.11,0.3c0.43,1.25 0.85,2.5 1.35,3.73c0.14,0.36 0.9,1.81 1.11,2.25c0.62,1.1 1.24,2.2 1.89,3.29c0.08,0.13 0.14,0.23 0.2,0.34c0.12,0.13 0.27,0.29 0.44,0.49c0.85,0.97 1.66,2 2.49,2.99c0.08,0.1 0.23,0.26 0.38,0.42c0.82,0.77 1.64,1.53 2.5,2.26c2.73,2.33 7.43,5.31 11.09,6.74c3.67,1.43 7.45,2.38 11.28,2.88c0,-1.71 0,-3.42 0,-5.13c0,-8.78 0,-17.56 0,-26.34c0,-6.68 5.73,-9.68 11.44,-6.6c6.46,3.49 11,11.79 11,19.06c0,5.65 0,11.3 0,16.95c8.93,-2.94 17.14,-8.66 23.01,-15.88c7.32,-9 10.96,-19.37 11.09,-30.12c-0.02,-1.15 -0.04,-2.31 -0.11,-3.45l0,0zm-81.1,39.83c0.38,0.37 0.65,0.62 0,0l0,0l0,0zm-213.25,-39.83c-0.07,-0.24 -0.39,-2.68 -0.39,-2.67c-0.18,-1.04 -0.4,-2.07 -0.63,-3.09c0.26,1.24 -0.54,-1.94 -0.66,-2.27c-0.43,-1.25 -0.95,-2.46 -1.43,-3.69c-0.06,-0.15 -0.11,-0.28 -0.16,-0.4c-0.1,-0.15 -0.22,-0.34 -0.35,-0.56c-0.46,-0.74 -0.85,-1.52 -1.3,-2.26c-0.23,-0.37 -0.47,-0.73 -0.7,-1.1c-0.13,-0.17 -0.33,-0.44 -0.62,-0.84c-0.85,-0.97 -1.66,-1.99 -2.49,-2.99c-0.17,-0.2 -0.3,-0.37 -0.42,-0.51c-0.14,-0.12 -0.32,-0.26 -0.53,-0.44c-0.98,-0.85 -1.92,-1.74 -2.93,-2.56c-0.09,-0.07 -2.3,-1.69 -2.04,-1.55c-4.1,-2.71 -7.82,-4.43 -11.82,-5.62c-19.07,-5.65 -40.38,0.86 -52.96,16.33c-6.15,7.56 -10.3,17.28 -10.94,25.96c-0.18,2.52 -0.23,5.08 -0.05,7.6c0.04,0 0.39,2.69 0.39,2.67c0.19,1.11 0.43,2.2 0.67,3.3c0.05,0.25 0.08,0.41 0.09,0.51c0.04,0.1 0.07,0.18 0.1,0.3c0.43,1.25 0.86,2.5 1.35,3.73c0.15,0.36 0.9,1.81 1.12,2.25c0.62,1.1 1.24,2.2 1.89,3.29c0.08,0.13 0.13,0.23 0.2,0.34c0.12,0.13 0.27,0.29 0.44,0.49c0.85,0.97 1.66,2 2.49,2.99c0.08,0.1 0.23,0.26 0.39,0.42c0.82,0.77 1.64,1.53 2.5,2.26c2.73,2.33 7.43,5.31 11.09,6.74c3.67,1.43 7.45,2.38 11.28,2.88c0,-1.71 0,-3.42 0,-5.13c0,-8.78 0,-17.56 0,-26.34c0,-6.68 5.73,-9.68 11.44,-6.6c6.47,3.49 11,11.79 11,19.06c0,5.65 0,11.3 0,16.95c8.93,-2.94 17.14,-8.66 23.01,-15.88c7.32,-9 10.96,-19.37 11.09,-30.12c-0.01,-1.15 -0.03,-2.31 -0.11,-3.45l-0.01,0zm-81.09,39.83c0.37,0.37 0.65,0.62 0,0l0,0l0,0zm-213.26,-39.83c-0.07,-0.24 -0.39,-2.68 -0.39,-2.67c-0.18,-1.04 -0.4,-2.07 -0.63,-3.09c0.26,1.24 -0.54,-1.94 -0.66,-2.27c-0.44,-1.25 -0.95,-2.46 -1.43,-3.69c-0.06,-0.15 -0.11,-0.28 -0.16,-0.4c-0.1,-0.15 -0.22,-0.34 -0.35,-0.56c-0.46,-0.74 -0.85,-1.52 -1.3,-2.26c-0.23,-0.37 -0.47,-0.73 -0.7,-1.1c-0.13,-0.17 -0.33,-0.44 -0.62,-0.84c-0.85,-0.97 -1.66,-1.99 -2.49,-2.99c-0.17,-0.2 -0.3,-0.37 -0.42,-0.51c-0.15,-0.12 -0.32,-0.26 -0.53,-0.44c-0.99,-0.85 -1.92,-1.74 -2.93,-2.56c-0.09,-0.07 -2.3,-1.69 -2.04,-1.55c-4.1,-2.71 -7.82,-4.43 -11.82,-5.62c-19.07,-5.65 -40.38,0.86 -52.96,16.33c-6.15,7.56 -10.3,17.28 -10.94,25.96c-0.18,2.52 -0.23,5.08 -0.05,7.6c0.04,0 0.39,2.69 0.39,2.67c0.19,1.11 0.43,2.2 0.67,3.3c0.05,0.25 0.08,0.41 0.09,0.51c0.04,0.1 0.07,0.18 0.1,0.3c0.43,1.25 0.86,2.5 1.35,3.73c0.15,0.36 0.9,1.81 1.12,2.25c0.62,1.1 1.24,2.2 1.89,3.29c0.08,0.13 0.14,0.23 0.2,0.34c0.12,0.13 0.27,0.29 0.44,0.49c0.85,0.97 1.66,2 2.49,2.99c0.08,0.1 0.23,0.26 0.39,0.42c0.82,0.77 1.64,1.53 2.5,2.26c2.73,2.33 7.43,5.31 11.09,6.74c3.67,1.43 7.45,2.38 11.28,2.88c0,-1.71 0,-3.42 0,-5.13c0,-8.78 0,-17.56 0,-26.34c0,-6.68 5.73,-9.68 11.44,-6.6c6.47,3.49 11,11.79 11,19.06c0,5.65 0,11.3 0,16.95c8.93,-2.94 17.14,-8.66 23.01,-15.88c7.32,-9 10.96,-19.37 11.09,-30.12c-0.01,-1.15 -0.04,-2.31 -0.11,-3.45l-0.01,0zm-81.09,39.83c0.37,0.37 0.64,0.62 0,0l0,0l0,0zm-197.19,74.59c0.39,19.4 16.83,31.02 35.32,31.43c4.05,0.09 8.11,0 12.16,0c28.13,0 56.26,0 84.39,0c30,0 60,0 89.99,0c0,-22.54 0,-45.09 0,-67.63c-15.24,-3.82 -29.17,-12.91 -39.2,-25.83c-18.45,-23.78 -23.64,-57.32 -7.61,-83.75c14.11,-23.26 42.7,-34.3 68.91,-27.87c33.03,8.11 55.78,40.47 56.82,73.67c0.04,0.49 0.05,0.98 0.05,1.46c-0.33,26.9 -16.53,52.45 -42.61,61.07c-4.6,1.52 -9.27,2.48 -13.93,2.93c0,8.08 0,16.16 0,24.23c0,13.91 0,27.82 0,41.72c12.22,0 24.44,0 36.67,0c65.11,0 130.22,0 195.33,0c13.3,0 26.61,0 39.91,0c0,-22.54 0,-45.09 0,-67.63c-15.24,-3.82 -29.17,-12.91 -39.2,-25.83c-18.45,-23.78 -23.64,-57.32 -7.6,-83.75c14.11,-23.26 42.7,-34.3 68.91,-27.87c33.03,8.11 55.78,40.47 56.82,73.67c0.03,0.49 0.05,0.98 0.05,1.46c-0.33,26.9 -16.53,52.45 -42.61,61.07c-4.6,1.52 -9.27,2.48 -13.93,2.93c0,8.08 0,16.16 0,24.23c0,13.91 0,27.82 0,41.72c53.58,0 107.17,0 160.75,0c37.06,0 74.11,0 111.16,0c0,-22.54 0,-45.09 0,-67.63c-15.24,-3.82 -29.17,-12.91 -39.2,-25.83c-18.45,-23.78 -23.63,-57.32 -7.6,-83.75c14.11,-23.26 42.69,-34.3 68.9,-27.87c33.03,8.11 55.79,40.47 56.83,73.67c0.03,0.49 0.05,0.98 0.04,1.46c-0.32,26.9 -16.53,52.45 -42.6,61.07c-4.61,1.52 -9.27,2.48 -13.93,2.93c0,8.08 0,16.16 0,24.23c0,13.91 0,27.82 0,41.72c32.93,0 65.87,0 98.8,0c57.71,0 115.41,0 173.11,0c0,-22.54 0,-45.09 0,-67.63c-15.24,-3.82 -29.17,-12.91 -39.2,-25.83c-18.46,-23.78 -23.64,-57.32 -7.61,-83.75c14.11,-23.26 42.7,-34.3 68.91,-27.87c33.03,8.11 55.78,40.47 56.82,73.67c0.04,0.49 0.06,0.98 0.05,1.46c-0.32,26.9 -16.53,52.45 -42.61,61.07c-4.6,1.52 -9.27,2.48 -13.92,2.93c0,8.08 0,16.16 0,24.23c0,13.91 0,27.82 0,41.72c9.48,0 18.96,0 28.44,0c65.16,0 130.31,0 195.47,0c16,0 32,0 48,0c0,-22.54 0,-45.09 0,-67.63c-15.24,-3.82 -29.17,-12.91 -39.2,-25.83c-18.46,-23.78 -23.64,-57.32 -7.61,-83.75c14.11,-23.26 42.7,-34.3 68.91,-27.87c33.02,8.11 55.78,40.47 56.82,73.67c0.04,0.49 0.05,0.98 0.05,1.46c-0.33,26.9 -16.53,52.45 -42.61,61.07c-4.6,1.52 -9.27,2.48 -13.93,2.93c0,8.08 0,16.16 0,24.23c0,13.91 0,27.82 0,41.72c26.43,0 52.86,0 79.29,0c28.13,0 56.26,0 84.39,0c4.05,0 8.11,0.08 12.16,0c26.27,-0.49 45.95,-20.49 46.02,-46.56c0.06,-21.1 0,-42.2 0,-63.3c0,-44.44 0,-88.88 0,-133.32c0,-25.11 0,-50.22 0,-75.34c-9.43,0 -18.86,0 -28.29,0c-40.34,0 -80.67,0 -121,0c-59.8,0 -119.6,0 -179.39,0c-72.96,0 -145.92,0 -218.87,0c-79.63,0 -159.26,0 -238.89,0c-80.92,0 -161.84,0 -242.77,0c-74.94,0 -149.88,0 -224.82,0c-63.56,0 -127.11,0 -190.67,0c-45.7,0 -91.39,0 -137.08,0c-20.58,0 -41.18,0.24 -61.76,0.02c0,27.51 0,55.03 0,82.54c0,45.09 0,90.18 0,135.26c0,21.95 0,43.89 0,65.84c0,1.14 -0.02,2.29 0,3.43l0,0l0,0zm1061.21,-1598.81c-76.64,0 -153.28,0 -229.92,0c-76.75,0 -153.51,0 -230.26,0c-70.71,0 -141.41,0 -212.12,0c-58.5,0 -117.01,0 -175.51,0c-40.14,0 -80.29,0 -120.43,0c-15.62,0 -31.28,-0.28 -46.9,0c-26.01,0.45 -45.97,20.21 -46.07,46.18c-0.03,6.99 0,13.99 0,20.98c0,33.13 0,66.25 0,99.38c0,53.7 0,107.39 0,161.09c0,67.66 0,135.31 0,202.97c0,75.57 0,151.14 0,226.71c0,77.28 0,154.56 0,231.84c0,72.78 0,145.55 0,218.33c0,25.26 0,50.51 0,75.77c9.43,0 18.86,0 28.29,0c40.33,0 80.67,0 121,0c59.8,0 119.6,0 179.39,0c72.96,0 145.91,0 218.87,0c79.63,0 159.26,0 238.89,0c80.92,0 161.84,0 242.77,0c74.94,0 149.88,0 224.82,0c63.56,0 127.11,0 190.67,0c45.69,0 91.39,0 137.08,0c20.58,0 41.18,-0.24 61.76,-0.02c0,-26.96 0,-53.93 0,-80.89c0,-72.77 0,-145.55 0,-218.32c0,-77.23 0,-154.46 0,-231.69c0,-75.72 0,-151.44 0,-227.17c0,-68.23 0,-136.46 0,-204.69c0,-27.56 0,-55.11 0,-82.67c-20.82,0 -41.64,0 -62.46,0c-38.07,0 -76.14,0 -114.21,0c-12.14,0 -24.47,1.05 -35.48,-5.29c-15.66,-9.02 -25.32,-26.53 -25.65,-44.43c-0.05,-2.53 0,-5.06 0,-7.59c0,-35.38 0,-70.76 0,-106.14c0,-24.77 -0.36,-49.57 -0.22,-74.35c-44.16,0 -88.32,0 -132.48,0c-70.61,0 -141.22,0 -211.83,0l0,0l0,0l0,0zm582.33,31.46c-0.39,-19.39 -16.79,-31.06 -35.29,-31.46c-14.45,0 -28.89,0 -43.33,0c-39.4,0 -78.79,0 -118.19,0c-0.55,0 -1.1,0 -1.65,0c18.42,18.42 36.84,36.84 55.26,55.26c42.69,42.69 85.37,85.37 128.06,128.06c5.05,5.04 10.09,10.09 15.14,15.14c0,-13.36 0,-26.71 0,-40.07c0,-33.88 0,-67.76 0,-101.63c0,-7.27 0,-14.54 0,-21.81c0,-1.16 0.02,-2.33 0,-3.49l0,0z" fill-rule = "winding" clip-path = "url(#54)" transform = "matrix(0.1937572,0,0,-0.1937592,21.19393,518.7885)" vector-effect="non-scaling-stroke" pen = "1.16255,1.162551" />
<path style="fill:#1E1F20;stroke:none; stroke-width:1" d="m632.23,1390.88c-2.5,0.15 -5.02,0.07 -7.52,0.07c-32.47,0 -64.94,0 -97.41,0c-29.12,0 -58.25,0.08 -87.37,0c-26.8,-0.08 -49.56,-21.68 -52.89,-48.25c-1.25,-9.94 -0.55,-20.29 -0.55,-30.28c0,-37.16 0,-74.32 0,-111.48c0,-8.8 -0.14,-17.61 0,-26.41c0.38,-23.85 18.34,-43.3 42.54,-43.38c28.86,-0.1 57.71,0 86.57,0c32.68,0 65.36,0 98.03,0c1.94,0 3.87,0 5.81,0c29.92,0.58 51.79,27.93 51.94,56.8c0.06,11.15 0,22.31 0,33.46c0,36.74 0,73.48 0,110.22c0,12.79 0.79,25.15 -5.16,37.02c-6.36,12.7 -19.84,21.41 -33.99,22.23m10.95,-227.42c-0.65,-0.5 -0.33,-0.25 0,0l0,0l0,0zm5.76,82.88c0,-17.2 0,-34.39 0,-51.59c0,-5.26 0,-10.51 0,-15.77c0,-1.24 0.01,-2.49 0,-3.73c0,-0.23 -0.01,-0.47 0,-0.7c0.01,-0.45 -0.01,-0.97 -0.03,-1.42c0.07,1.8 -0.61,-2.61 -0.54,-2.95c-0.06,-0.21 -0.12,-0.39 -0.14,-0.44c-0.2,-0.47 -0.38,-0.95 -0.57,-1.43c0.3,0.88 -0.64,-0.79 -0.89,-1.38c-0.33,-0.41 -0.79,-0.98 -1.18,-1.45c-0.19,-0.09 -1.59,-1.36 -2.16,-1.82c-0.7,-0.44 -1.41,-0.87 -2.14,-1.26c-1.32,-0.71 -2.16,-1.04 -2.56,-1.17c-2.78,-0.97 -5.67,-1.55 -8.59,-1.61c-23.23,0 -46.46,0 -69.7,0c-34.98,0 -69.96,0 -104.93,0c-7.93,0 -16.73,-0.88 -24.54,0.79c-11.04,2.37 -20.31,12.92 -21.81,22.44c-0.47,3 -0.24,6.29 -0.24,9.33c0,32.6 0,65.21 0,97.81c0,15.44 0,30.89 0,46.33c0,3.51 -0.02,7.02 0,10.52c0,0.23 0.01,0.46 0,0.68c-0.01,0.39 0.01,0.79 0.02,1.19c0.01,-0.57 0.25,1.31 0.45,2.59c0.06,-0.08 0.63,1.77 0.88,2.61c0.01,0.02 0.01,0.03 0.02,0.05c0.01,0 0.21,0.33 0.42,0.7c-0.32,-0.6 0.9,1.18 1.6,2.03c0.06,0.05 0.12,0.1 0.21,0.16c0.68,0.54 1.32,1.11 1.99,1.65c0.21,0.08 1.67,0.99 2.05,1.19c1.97,1.06 1.79,0.96 3.19,1.39c2.61,0.81 5.25,1.34 7.96,1.4c0.5,0.01 1,0 1.5,0c3.6,0.01 7.21,0 10.81,0c14.57,0 29.14,0 43.71,0c36.35,0 72.69,0 109.04,0c8.7,0 17.41,0.09 26.11,0c8.5,-0.1 16.74,-2.85 22.59,-9.29c5.37,-5.91 7.43,-12.03 7.46,-19.13c0.14,-29.24 0,-58.48 0,-87.72l0.01,0z" fill-rule = "winding" clip-path = "url(#54)" transform = "matrix(0.1937575,0,0,-0.1937594,21.19449,518.8131)" vector-effect="non-scaling-stroke" pen = "1.162551,1.16255" />
<path style="fill:#1E1F20;stroke:none; stroke-width:1" d="m1012.94,1390.88c-2.5,0.15 -5.02,0.07 -7.52,0.07c-32.47,0 -64.94,0 -97.4,0c-29.12,0 -58.25,0.08 -87.37,0c-26.8,-0.08 -49.56,-21.68 -52.89,-48.25c-1.25,-9.94 -0.55,-20.29 -0.55,-30.28c0,-37.16 0,-74.32 0,-111.48c0,-8.8 -0.14,-17.61 0,-26.41c0.38,-23.85 18.34,-43.3 42.55,-43.38c28.85,-0.1 57.71,0 86.56,0c32.68,0 65.36,0 98.03,0c1.94,0 3.87,0 5.8,0c29.92,0.58 51.79,27.93 51.94,56.8c0.06,11.15 0,22.31 0,33.46c0,36.74 0,73.48 0,110.22c0,12.79 0.79,25.15 -5.16,37.02c-6.36,12.7 -19.84,21.41 -33.99,22.23m10.95,-227.42c-0.65,-0.5 -0.33,-0.25 0,0l0,0l0,0zm5.76,82.88c0,-17.2 0,-34.39 0,-51.59c0,-5.26 0,-10.51 0,-15.77c0,-1.24 0.01,-2.49 0,-3.73c0,-0.23 0,-0.47 0,-0.7c0.01,-0.45 -0.01,-0.97 -0.02,-1.42c0.07,1.8 -0.61,-2.6 -0.54,-2.95c-0.07,-0.21 -0.13,-0.39 -0.15,-0.44c-0.19,-0.47 -0.38,-0.95 -0.56,-1.43c0.3,0.88 -0.64,-0.79 -0.9,-1.38c-0.33,-0.41 -0.79,-0.98 -1.17,-1.45c-0.19,-0.09 -1.59,-1.36 -2.17,-1.82c-0.69,-0.44 -1.41,-0.87 -2.14,-1.26c-1.32,-0.71 -2.16,-1.04 -2.55,-1.17c-2.79,-0.97 -5.68,-1.55 -8.59,-1.61c-23.23,0 -46.46,0 -69.7,0c-34.98,0 -69.96,0 -104.93,0c-7.93,0 -16.73,-0.88 -24.54,0.79c-11.04,2.37 -20.31,12.92 -21.81,22.44c-0.47,3 -0.24,6.29 -0.24,9.33c0,32.6 0,65.21 0,97.81c0,15.44 0,30.89 0,46.33c0,3.51 -0.02,7.02 0,10.52c0,0.23 0.01,0.46 0,0.68c-0.01,0.39 0.01,0.79 0.02,1.19c0.01,-0.57 0.25,1.31 0.44,2.59c0.06,-0.08 0.64,1.77 0.88,2.61c0.01,0.02 0.02,0.03 0.03,0.05c0.01,0 0.21,0.33 0.42,0.7c-0.32,-0.6 0.9,1.18 1.6,2.03c0.06,0.05 0.12,0.1 0.21,0.16c0.68,0.54 1.32,1.11 1.99,1.65c0.21,0.08 1.67,0.99 2.05,1.19c1.97,1.06 1.79,0.96 3.19,1.39c2.61,0.81 5.26,1.34 7.96,1.4c0.5,0.01 1,0 1.5,0c3.6,0.01 7.21,0 10.81,0c14.57,0 29.14,0 43.71,0c36.34,0 72.69,0 109.04,0c8.7,0 17.41,0.09 26.11,0c8.49,-0.1 16.74,-2.85 22.59,-9.29c5.37,-5.91 7.43,-12.03 7.46,-19.13c0.14,-29.24 0,-58.48 0,-87.72l0,0z" fill-rule = "winding" clip-path = "url(#54)" transform = "matrix(0.1937573,0,0,-0.1937597,21.19556,518.8013)" vector-effect="non-scaling-stroke" pen = "1.16255,1.162551" />
<path style="fill:#1E1F20;stroke:none; stroke-width:1" d="m1393.64,1390.88c-2.49,0.15 -5.01,0.07 -7.51,0.07c-32.47,0 -64.94,0 -97.41,0c-29.12,0 -58.25,0.08 -87.37,0c-26.8,-0.08 -49.56,-21.68 -52.89,-48.25c-1.25,-9.94 -0.55,-20.29 -0.55,-30.28c0,-37.16 0,-74.32 0,-111.48c0,-8.8 -0.14,-17.61 0,-26.41c0.38,-23.85 18.34,-43.3 42.54,-43.38c28.86,-0.1 57.72,0 86.57,0c32.68,0 65.36,0 98.03,0c1.94,0 3.88,0 5.81,0c29.92,0.58 51.79,27.93 51.94,56.8c0.05,11.15 0,22.31 0,33.46c0,36.74 0,73.48 0,110.22c0,12.79 0.79,25.15 -5.17,37.02c-6.36,12.7 -19.83,21.41 -33.99,22.23m10.96,-227.42c-0.65,-0.5 -0.33,-0.25 0,0l0,0l0,0zm5.76,82.88c0,-17.2 0,-34.39 0,-51.59c0,-5.26 0,-10.51 0,-15.77c0,-1.24 0.01,-2.49 0,-3.73c0,-0.23 -0.01,-0.47 0,-0.7c0.01,-0.45 -0.01,-0.97 -0.03,-1.42c0.07,1.8 -0.6,-2.6 -0.54,-2.95c-0.06,-0.21 -0.12,-0.39 -0.14,-0.44c-0.2,-0.47 -0.38,-0.95 -0.57,-1.43c0.31,0.88 -0.64,-0.79 -0.89,-1.38c-0.33,-0.41 -0.79,-0.98 -1.18,-1.45c-0.19,-0.09 -1.58,-1.36 -2.16,-1.82c-0.7,-0.44 -1.41,-0.87 -2.14,-1.26c-1.32,-0.71 -2.16,-1.04 -2.56,-1.17c-2.78,-0.97 -5.67,-1.55 -8.58,-1.61c-23.24,0 -46.47,0 -69.7,0c-34.98,0 -69.96,0 -104.94,0c-7.92,0 -16.72,-0.88 -24.54,0.79c-11.04,2.37 -20.3,12.92 -21.8,22.44c-0.48,3 -0.24,6.29 -0.24,9.33c0,32.6 0,65.21 0,97.81c0,15.44 0,30.89 0,46.33c0,3.51 -0.02,7.02 0,10.52c0,0.23 0,0.46 0,0.68c-0.01,0.39 0,0.79 0.02,1.19c0.01,-0.57 0.25,1.31 0.44,2.59c0.07,-0.08 0.64,1.77 0.89,2.61c0.01,0.02 0.01,0.03 0.02,0.05c0.01,0 0.21,0.33 0.43,0.7c-0.32,-0.6 0.9,1.18 1.6,2.03c0.06,0.05 0.12,0.1 0.2,0.16c0.68,0.54 1.32,1.11 1.99,1.65c0.22,0.08 1.67,0.99 2.06,1.19c1.96,1.06 1.79,0.96 3.18,1.39c2.61,0.81 5.26,1.34 7.96,1.4c0.5,0.01 1.01,0 1.51,0c3.6,0.01 7.2,0 10.81,0c14.57,0 29.14,0 43.71,0c36.34,0 72.69,0 109.03,0c8.7,0 17.41,0.09 26.11,0c8.5,-0.1 16.74,-2.85 22.59,-9.29c5.37,-5.91 7.43,-12.03 7.46,-19.13c0.14,-29.24 0,-58.48 0,-87.72l0,0z" fill-rule = "winding" clip-path = "url(#54)" transform = "matrix(0.1937573,0,0,-0.1937597,21.19308,518.5968)" vector-effect="non-scaling-stroke" pen = "1.16255,1.162552" />
<path style="fill:#1E1F20;stroke:none; stroke-width:1" d="m1528.62,1200.94c0,-8.8 -0.14,-17.61 0,-26.41c0.37,-23.85 18.33,-43.3 42.54,-43.38c28.86,-0.1 57.71,0 86.57,0c32.67,0 65.35,0 98.03,0c1.94,0 3.87,0 5.81,0c29.91,0.58 51.79,27.93 51.93,56.8c0.06,11.15 0,22.31 0,33.46c0,36.74 0,73.48 0,110.22c0,12.79 0.79,25.15 -5.16,37.02c-6.36,12.7 -19.83,21.41 -33.99,22.23c-2.5,0.15 -5.02,0.07 -7.52,0.07c-32.47,0 -64.93,0 -97.4,0c-29.12,0 -58.25,0.08 -87.37,0c-26.8,-0.08 -49.56,-21.68 -52.9,-48.25c-1.24,-9.94 -0.54,-20.29 -0.54,-30.28c0,-37.16 0,-74.32 0,-111.48m256.68,-37.48c-0.65,-0.5 -0.33,-0.25 0,0l0,0l0,0zm-234.25,183.38c0.01,0.23 0.01,0.46 0,0.68c-0.01,0.39 0.01,0.79 0.03,1.19c0,-0.56 0.25,1.31 0.44,2.59c0.06,-0.08 0.64,1.77 0.88,2.61c0.01,0.02 0.02,0.03 0.03,0.05c0.01,0 0.21,0.33 0.42,0.7c-0.31,-0.6 0.9,1.18 1.6,2.03c0.06,0.05 0.13,0.1 0.21,0.16c0.68,0.54 1.31,1.11 1.99,1.65c0.21,0.08 1.67,0.99 2.05,1.19c1.97,1.06 1.79,0.96 3.19,1.39c2.61,0.81 5.25,1.34 7.96,1.4c0.5,0.01 1,0 1.5,0c3.61,0.01 7.21,0 10.81,0c14.57,0 29.14,0 43.71,0c36.35,0 72.69,0 109.04,0c8.7,0 17.41,0.09 26.11,0c8.5,-0.1 16.74,-2.85 22.58,-9.29c5.37,-5.91 7.43,-12.03 7.47,-19.13c0.13,-29.24 0,-58.48 0,-87.72c0,-17.2 0,-34.39 0,-51.59c0,-5.26 0,-10.51 0,-15.77c0,-1.24 0,-2.49 0,-3.73c-0.01,-0.23 -0.01,-0.47 0,-0.7c0.01,-0.45 -0.01,-0.97 -0.03,-1.42c0.07,1.8 -0.61,-2.6 -0.54,-2.95c-0.07,-0.21 -0.12,-0.39 -0.14,-0.44c-0.2,-0.47 -0.38,-0.95 -0.57,-1.43c0.3,0.88 -0.64,-0.79 -0.89,-1.38c-0.34,-0.41 -0.8,-0.98 -1.18,-1.45c-0.19,-0.09 -1.59,-1.36 -2.16,-1.82c-0.7,-0.44 -1.42,-0.87 -2.14,-1.26c-1.33,-0.71 -2.16,-1.04 -2.56,-1.17c-2.78,-0.97 -5.67,-1.55 -8.59,-1.61c-23.23,0 -46.46,0 -69.7,0c-34.97,0 -69.95,0 -104.93,0c-7.92,0 -16.73,-0.88 -24.54,0.79c-11.05,2.37 -20.31,12.92 -21.81,22.44c-0.47,3 -0.24,6.29 -0.24,9.33c0,32.6 0,65.21 0,97.81c0,15.44 0,30.89 0,46.33c0,3.51 -0.02,7.02 0,10.52l0,0z" fill-rule = "winding" clip-path = "url(#54)" transform = "matrix(0.1937574,0,0,-0.1937596,21.19298,518.6259)" vector-effect="non-scaling-stroke" pen = "1.162552,1.162551" />
<path style="fill:#1E1F20;stroke:none; stroke-width:1" d="m632.23,1019.51c-2.5,0.15 -5.02,0.07 -7.52,0.07c-32.47,0 -64.94,0 -97.41,0c-29.12,0 -58.25,0.08 -87.37,0c-26.8,-0.08 -49.56,-21.69 -52.89,-48.25c-1.25,-9.94 -0.55,-20.29 -0.55,-30.28c0,-37.16 0,-74.32 0,-111.48c0,-8.8 -0.14,-17.61 0,-26.41c0.38,-23.85 18.34,-43.3 42.54,-43.38c28.86,-0.1 57.71,0 86.57,0c32.68,0 65.36,0 98.03,0c1.94,0 3.87,0 5.81,0c29.92,0.58 51.79,27.93 51.94,56.8c0.06,11.15 0,22.31 0,33.46c0,36.74 0,73.48 0,110.22c0,12.79 0.79,25.15 -5.16,37.02c-6.36,12.7 -19.84,21.41 -33.99,22.23m10.95,-227.42c-0.65,-0.5 -0.33,-0.25 0,0l0,0l0,0zm5.76,82.88c0,-17.2 0,-34.39 0,-51.59c0,-5.26 0,-10.51 0,-15.77c0,-1.24 0.01,-2.49 0,-3.73c0,-0.23 -0.01,-0.47 0,-0.7c0.01,-0.45 -0.01,-0.97 -0.03,-1.42c0.07,1.8 -0.61,-2.61 -0.54,-2.95c-0.06,-0.21 -0.12,-0.39 -0.14,-0.44c-0.2,-0.47 -0.38,-0.95 -0.57,-1.43c0.3,0.88 -0.64,-0.79 -0.89,-1.38c-0.33,-0.41 -0.79,-0.98 -1.18,-1.45c-0.19,-0.09 -1.59,-1.36 -2.16,-1.82c-0.7,-0.44 -1.41,-0.87 -2.14,-1.26c-1.32,-0.71 -2.16,-1.04 -2.56,-1.17c-2.78,-0.97 -5.67,-1.56 -8.59,-1.61c-23.23,0 -46.46,0 -69.7,0c-34.98,0 -69.96,0 -104.93,0c-7.93,0 -16.73,-0.88 -24.54,0.79c-11.04,2.37 -20.31,12.92 -21.81,22.44c-0.47,3 -0.24,6.29 -0.24,9.33c0,32.6 0,65.2 0,97.81c0,15.44 0,30.89 0,46.33c0,3.51 -0.02,7.02 0,10.53c0,0.22 0.01,0.45 0,0.67c-0.01,0.39 0.01,0.79 0.02,1.19c0.01,-0.57 0.25,1.31 0.45,2.59c0.06,-0.08 0.63,1.76 0.88,2.62c0.01,0.01 0.01,0.02 0.02,0.04c0.01,0 0.21,0.33 0.42,0.7c-0.32,-0.6 0.9,1.18 1.6,2.03c0.06,0.05 0.12,0.1 0.21,0.16c0.68,0.54 1.32,1.11 1.99,1.65c0.21,0.08 1.67,0.99 2.05,1.19c1.97,1.06 1.79,0.96 3.19,1.39c2.61,0.81 5.25,1.34 7.96,1.4c0.5,0.01 1,0 1.5,0c3.6,0.01 7.21,0 10.81,0c14.57,0 29.14,0 43.71,0c36.35,0 72.69,0 109.04,0c8.7,0 17.41,0.09 26.11,0c8.5,-0.1 16.74,-2.85 22.59,-9.29c5.37,-5.91 7.43,-12.03 7.46,-19.13c0.14,-29.24 0,-58.48 0,-87.72l0.01,0z" fill-rule = "winding" clip-path = "url(#54)" transform = "matrix(0.1937575,0,0,-0.1937596,21.19501,518.7827)" vector-effect="non-scaling-stroke" pen = "1.16255,1.162552" />
<path style="fill:#1E1F20;stroke:none; stroke-width:1" d="m1012.94,1019.51c-2.5,0.15 -5.02,0.07 -7.52,0.07c-32.47,0 -64.94,0 -97.4,0c-29.12,0 -58.25,0.08 -87.37,0c-26.8,-0.08 -49.56,-21.69 -52.89,-48.25c-1.25,-9.94 -0.55,-20.29 -0.55,-30.28c0,-37.16 0,-74.32 0,-111.48c0,-8.8 -0.14,-17.61 0,-26.41c0.38,-23.85 18.34,-43.3 42.55,-43.38c28.85,-0.1 57.71,0 86.56,0c32.68,0 65.36,0 98.03,0c1.94,0 3.87,0 5.8,0c29.92,0.58 51.79,27.93 51.94,56.8c0.06,11.15 0,22.31 0,33.46c0,36.74 0,73.48 0,110.22c0,12.79 0.79,25.15 -5.16,37.02c-6.36,12.7 -19.84,21.41 -33.99,22.23m10.95,-227.42c-0.65,-0.5 -0.33,-0.25 0,0l0,0l0,0zm5.76,82.88c0,-17.2 0,-34.39 0,-51.59c0,-5.26 0,-10.51 0,-15.77c0,-1.24 0.01,-2.49 0,-3.73c0,-0.23 0,-0.47 0,-0.7c0.01,-0.45 -0.01,-0.97 -0.02,-1.42c0.07,1.8 -0.61,-2.6 -0.54,-2.95c-0.07,-0.21 -0.13,-0.39 -0.15,-0.44c-0.19,-0.47 -0.38,-0.95 -0.56,-1.43c0.3,0.88 -0.64,-0.79 -0.9,-1.38c-0.33,-0.41 -0.79,-0.98 -1.17,-1.45c-0.19,-0.09 -1.59,-1.36 -2.17,-1.82c-0.69,-0.44 -1.41,-0.87 -2.14,-1.26c-1.32,-0.71 -2.16,-1.04 -2.55,-1.17c-2.79,-0.97 -5.68,-1.56 -8.59,-1.61c-23.23,0 -46.46,0 -69.7,0c-34.98,0 -69.96,0 -104.93,0c-7.93,0 -16.73,-0.88 -24.54,0.79c-11.04,2.37 -20.31,12.92 -21.81,22.44c-0.47,3 -0.24,6.29 -0.24,9.33c0,32.6 0,65.2 0,97.81c0,15.44 0,30.89 0,46.33c0,3.51 -0.02,7.02 0,10.53c0,0.22 0.01,0.45 0,0.67c-0.01,0.39 0.01,0.79 0.02,1.19c0.01,-0.57 0.25,1.31 0.44,2.59c0.06,-0.08 0.64,1.76 0.88,2.62c0.01,0.01 0.02,0.02 0.03,0.04c0.01,0 0.21,0.33 0.42,0.7c-0.32,-0.6 0.9,1.18 1.6,2.03c0.06,0.05 0.12,0.1 0.21,0.16c0.68,0.54 1.32,1.11 1.99,1.65c0.21,0.08 1.67,0.99 2.05,1.19c1.97,1.06 1.79,0.96 3.19,1.39c2.61,0.81 5.26,1.34 7.96,1.4c0.5,0.01 1,0 1.5,0c3.6,0.01 7.21,0 10.81,0c14.57,0 29.14,0 43.71,0c36.34,0 72.69,0 109.04,0c8.7,0 17.41,0.09 26.11,0c8.49,-0.1 16.74,-2.85 22.59,-9.29c5.37,-5.91 7.43,-12.03 7.46,-19.13c0.14,-29.24 0,-58.48 0,-87.72l0,0z" fill-rule = "winding" clip-path = "url(#54)" transform = "matrix(0.1937572,0,0,-0.1937596,21.19226,518.684)" vector-effect="non-scaling-stroke" pen = "1.16255,1.162551" />
<path style="fill:#1E1F20;stroke:none; stroke-width:1" d="m1393.64,1019.51c-2.49,0.15 -5.01,0.07 -7.51,0.07c-32.47,0 -64.94,0 -97.41,0c-29.12,0 -58.25,0.08 -87.37,0c-26.8,-0.08 -49.56,-21.69 -52.89,-48.25c-1.25,-9.94 -0.55,-20.29 -0.55,-30.28c0,-37.16 0,-74.32 0,-111.48c0,-8.8 -0.14,-17.61 0,-26.41c0.38,-23.85 18.34,-43.3 42.54,-43.38c28.86,-0.1 57.72,0 86.57,0c32.68,0 65.36,0 98.03,0c1.94,0 3.88,0 5.81,0c29.92,0.58 51.79,27.93 51.94,56.8c0.05,11.15 0,22.31 0,33.46c0,36.74 0,73.48 0,110.22c0,12.79 0.79,25.15 -5.17,37.02c-6.36,12.7 -19.83,21.41 -33.99,22.23m10.96,-227.42c-0.65,-0.5 -0.33,-0.25 0,0l0,0l0,0zm5.76,82.88c0,-17.2 0,-34.39 0,-51.59c0,-5.26 0,-10.51 0,-15.77c0,-1.24 0.01,-2.49 0,-3.73c0,-0.23 -0.01,-0.47 0,-0.7c0.01,-0.45 -0.01,-0.97 -0.03,-1.42c0.07,1.8 -0.6,-2.6 -0.54,-2.95c-0.06,-0.21 -0.12,-0.39 -0.14,-0.44c-0.2,-0.47 -0.38,-0.95 -0.57,-1.43c0.31,0.88 -0.64,-0.79 -0.89,-1.38c-0.33,-0.41 -0.79,-0.98 -1.18,-1.45c-0.19,-0.09 -1.58,-1.36 -2.16,-1.82c-0.7,-0.44 -1.41,-0.87 -2.14,-1.26c-1.32,-0.71 -2.16,-1.04 -2.56,-1.17c-2.78,-0.97 -5.67,-1.56 -8.58,-1.61c-23.24,0 -46.47,0 -69.7,0c-34.98,0 -69.96,0 -104.94,0c-7.92,0 -16.72,-0.88 -24.54,0.79c-11.04,2.37 -20.3,12.92 -21.8,22.44c-0.48,3 -0.24,6.29 -0.24,9.33c0,32.6 0,65.2 0,97.81c0,15.44 0,30.89 0,46.33c0,3.51 -0.02,7.02 0,10.53c0,0.22 0,0.45 0,0.67c-0.01,0.39 0,0.79 0.02,1.19c0.01,-0.57 0.25,1.31 0.44,2.59c0.07,-0.08 0.64,1.76 0.89,2.62c0.01,0.01 0.01,0.02 0.02,0.04c0.01,0 0.21,0.33 0.43,0.7c-0.32,-0.6 0.9,1.18 1.6,2.03c0.06,0.05 0.12,0.1 0.2,0.16c0.68,0.54 1.32,1.11 1.99,1.65c0.22,0.08 1.67,0.99 2.06,1.19c1.96,1.06 1.79,0.96 3.18,1.39c2.61,0.81 5.26,1.34 7.96,1.4c0.5,0.01 1.01,0 1.51,0c3.6,0.01 7.2,0 10.81,0c14.57,0 29.14,0 43.71,0c36.34,0 72.69,0 109.03,0c8.7,0 17.41,0.09 26.11,0c8.5,-0.1 16.74,-2.85 22.59,-9.29c5.37,-5.91 7.43,-12.03 7.46,-19.13c0.14,-29.24 0,-58.48 0,-87.72l0,0z" fill-rule = "winding" clip-path = "url(#54)" transform = "matrix(0.1937574,0,0,-0.1937596,21.19246,518.7495)" vector-effect="non-scaling-stroke" pen = "1.162551,1.162551" />
<path style="fill:#1E1F20;stroke:none; stroke-width:1" d="m1761.57,759.78c29.91,0.58 51.79,27.93 51.93,56.8c0.06,11.15 0,22.31 0,33.46c0,36.74 0,73.48 0,110.22c0,12.79 0.79,25.15 -5.16,37.02c-6.36,12.7 -19.83,21.41 -33.99,22.23c-2.5,0.15 -5.02,0.07 -7.52,0.07c-32.47,0 -64.93,0 -97.4,0c-29.12,0 -58.25,0.08 -87.37,0c-26.8,-0.08 -49.56,-21.69 -52.9,-48.25c-1.24,-9.94 -0.54,-20.29 -0.54,-30.28c0,-37.16 0,-74.32 0,-111.48c0,-8.8 -0.14,-17.61 0,-26.41c0.37,-23.85 18.33,-43.3 42.54,-43.38c28.86,-0.1 57.71,0 86.57,0c32.67,0 65.35,0 98.03,0c1.94,0 3.87,0 5.81,0m23.73,32.31c-0.65,-0.5 -0.33,-0.25 0,0l0,0l0,0zm-187.66,-3.84c-7.92,0 -16.73,-0.88 -24.54,0.79c-11.05,2.37 -20.31,12.92 -21.81,22.44c-0.47,3 -0.24,6.29 -0.24,9.33c0,32.6 0,65.2 0,97.81c0,15.44 0,30.89 0,46.33c0,3.51 -0.02,7.02 0,10.53c0.01,0.22 0.01,0.45 0,0.67c-0.01,0.39 0.01,0.79 0.03,1.19c0,-0.56 0.25,1.31 0.44,2.59c0.06,-0.08 0.64,1.76 0.88,2.62c0.01,0.01 0.02,0.02 0.03,0.04c0.01,0 0.21,0.33 0.42,0.7c-0.31,-0.6 0.9,1.18 1.6,2.03c0.06,0.05 0.13,0.1 0.21,0.16c0.68,0.54 1.31,1.11 1.99,1.65c0.21,0.08 1.67,0.99 2.05,1.19c1.97,1.06 1.79,0.96 3.19,1.39c2.61,0.81 5.25,1.34 7.96,1.4c0.5,0.01 1,0 1.5,0c3.61,0.01 7.21,0 10.81,0c14.57,0 29.14,0 43.71,0c36.35,0 72.69,0 109.04,0c8.7,0 17.41,0.09 26.11,0c8.5,-0.1 16.74,-2.85 22.58,-9.29c5.37,-5.91 7.43,-12.03 7.47,-19.13c0.13,-29.24 0,-58.48 0,-87.72c0,-17.2 0,-34.39 0,-51.59c0,-5.26 0,-10.51 0,-15.77c0,-1.24 0,-2.49 0,-3.73c-0.01,-0.23 -0.01,-0.47 0,-0.7c0.01,-0.45 -0.01,-0.97 -0.03,-1.42c0.07,1.8 -0.61,-2.6 -0.54,-2.95c-0.07,-0.21 -0.12,-0.39 -0.14,-0.44c-0.2,-0.47 -0.38,-0.95 -0.57,-1.43c0.3,0.88 -0.64,-0.79 -0.89,-1.38c-0.34,-0.41 -0.8,-0.98 -1.18,-1.45c-0.19,-0.09 -1.59,-1.36 -2.16,-1.82c-0.7,-0.44 -1.42,-0.87 -2.14,-1.26c-1.33,-0.71 -2.16,-1.04 -2.56,-1.17c-2.78,-0.97 -5.67,-1.56 -8.59,-1.61c-23.23,0 -46.46,0 -69.7,0c-34.97,0 -69.95,0 -104.93,0l0,0z" fill-rule = "winding" clip-path = "url(#54)" transform = "matrix(0.1937575,0,0,-0.1937592,21.19359,518.6742)" vector-effect="non-scaling-stroke" pen = "1.16255,1.162551" />
<path style="fill:#1E1F20;stroke:none; stroke-width:1" d="m666.22,625.91c-6.36,12.7 -19.84,21.41 -33.99,22.23c-2.5,0.15 -5.02,0.07 -7.52,0.07c-32.47,0 -64.94,0 -97.41,0c-29.12,0 -58.25,0.08 -87.37,0c-26.8,-0.08 -49.56,-21.69 -52.89,-48.25c-1.25,-9.94 -0.55,-20.29 -0.55,-30.28c0,-37.16 0,-74.32 0,-111.48c0,-8.8 -0.14,-17.61 0,-26.41c0.38,-23.85 18.34,-43.3 42.54,-43.38c28.86,-0.1 57.71,0 86.57,0c32.68,0 65.36,0 98.03,0c1.94,0 3.87,0 5.81,0c29.92,0.57 51.79,27.93 51.94,56.8c0.06,11.15 0,22.31 0,33.46c0,36.74 0,73.48 0,110.22c0,12.79 0.79,25.15 -5.16,37.02m-23.04,-205.19c-0.65,-0.5 -0.33,-0.25 0,0l0,0l0,0zm5.76,82.88c0,-17.2 0,-34.39 0,-51.59c0,-5.26 0,-10.51 0,-15.77c0,-1.24 0.01,-2.49 0,-3.73c0,-0.23 -0.01,-0.47 0,-0.7c0.01,-0.45 -0.01,-0.97 -0.03,-1.42c0.07,1.8 -0.61,-2.61 -0.54,-2.95c-0.06,-0.21 -0.12,-0.39 -0.14,-0.44c-0.2,-0.47 -0.38,-0.95 -0.57,-1.43c0.3,0.88 -0.64,-0.79 -0.89,-1.38c-0.33,-0.41 -0.79,-0.98 -1.18,-1.45c-0.19,-0.09 -1.59,-1.36 -2.16,-1.82c-0.7,-0.44 -1.41,-0.87 -2.14,-1.26c-1.32,-0.71 -2.16,-1.04 -2.56,-1.17c-2.78,-0.97 -5.67,-1.56 -8.59,-1.61c-23.23,0 -46.46,0 -69.7,0c-34.98,0 -69.96,0 -104.93,0c-7.93,0 -16.73,-0.88 -24.54,0.79c-11.04,2.37 -20.31,12.92 -21.81,22.44c-0.47,3 -0.24,6.29 -0.24,9.33c0,32.6 0,65.2 0,97.81c0,15.44 0,30.89 0,46.33c0,3.51 -0.02,7.02 0,10.53c0,0.22 0.01,0.45 0,0.67c-0.01,0.39 0.01,0.79 0.02,1.19c0.01,-0.57 0.25,1.31 0.45,2.59c0.06,-0.08 0.63,1.76 0.88,2.61c0.01,0.02 0.01,0.03 0.02,0.05c0.01,0 0.21,0.33 0.42,0.7c-0.32,-0.6 0.9,1.18 1.6,2.03c0.06,0.05 0.12,0.1 0.21,0.16c0.68,0.54 1.32,1.11 1.99,1.65c0.21,0.08 1.67,0.99 2.05,1.19c1.97,1.06 1.79,0.96 3.19,1.39c2.61,0.81 5.25,1.34 7.96,1.4c0.5,0.01 1,-0.01 1.5,0c3.6,0.01 7.21,0 10.81,0c14.57,0 29.14,0 43.71,0c36.35,0 72.69,0 109.04,0c8.7,0 17.41,0.09 26.11,0c8.5,-0.1 16.74,-2.85 22.59,-9.29c5.37,-5.91 7.43,-12.03 7.46,-19.13c0.14,-29.24 0,-58.48 0,-87.72l0.01,0z" fill-rule = "winding" clip-path = "url(#54)" transform = "matrix(0.1937573,0,0,-0.1937597,21.19423,518.6782)" vector-effect="non-scaling-stroke" pen = "1.16255,1.162551" />
<path style="fill:#1E1F20;stroke:none; stroke-width:1" d="m1046.93,625.91c-6.36,12.7 -19.84,21.41 -33.99,22.23c-2.5,0.15 -5.02,0.07 -7.52,0.07c-32.47,0 -64.94,0 -97.4,0c-29.12,0 -58.25,0.08 -87.37,0c-26.8,-0.08 -49.56,-21.69 -52.89,-48.25c-1.25,-9.94 -0.55,-20.29 -0.55,-30.28c0,-37.16 0,-74.32 0,-111.48c0,-8.8 -0.14,-17.61 0,-26.41c0.38,-23.85 18.34,-43.3 42.55,-43.38c28.85,-0.1 57.71,0 86.56,0c32.68,0 65.36,0 98.03,0c1.94,0 3.87,0 5.8,0c29.92,0.57 51.79,27.93 51.94,56.8c0.06,11.15 0,22.31 0,33.46c0,36.74 0,73.48 0,110.22c0,12.79 0.79,25.15 -5.16,37.02m-23.04,-205.19c-0.65,-0.5 -0.33,-0.25 0,0l0,0l0,0zm5.76,82.88c0,-17.2 0,-34.39 0,-51.59c0,-5.26 0,-10.51 0,-15.77c0,-1.24 0.01,-2.49 0,-3.73c0,-0.23 0,-0.47 0,-0.7c0.01,-0.45 -0.01,-0.97 -0.02,-1.42c0.07,1.8 -0.61,-2.6 -0.54,-2.95c-0.07,-0.21 -0.13,-0.39 -0.15,-0.44c-0.19,-0.47 -0.38,-0.95 -0.56,-1.43c0.3,0.88 -0.64,-0.79 -0.9,-1.38c-0.33,-0.41 -0.79,-0.98 -1.17,-1.45c-0.19,-0.09 -1.59,-1.36 -2.17,-1.82c-0.69,-0.44 -1.41,-0.87 -2.14,-1.26c-1.32,-0.71 -2.16,-1.04 -2.55,-1.17c-2.79,-0.97 -5.68,-1.56 -8.59,-1.61c-23.23,0 -46.46,0 -69.7,0c-34.98,0 -69.96,0 -104.93,0c-7.93,0 -16.73,-0.88 -24.54,0.79c-11.04,2.37 -20.31,12.92 -21.81,22.44c-0.47,3 -0.24,6.29 -0.24,9.33c0,32.6 0,65.2 0,97.81c0,15.44 0,30.89 0,46.33c0,3.51 -0.02,7.02 0,10.53c0,0.22 0.01,0.45 0,0.67c-0.01,0.39 0.01,0.79 0.02,1.19c0.01,-0.57 0.25,1.31 0.44,2.59c0.06,-0.08 0.64,1.76 0.88,2.61c0.01,0.02 0.02,0.03 0.03,0.05c0.01,0 0.21,0.33 0.42,0.7c-0.32,-0.6 0.9,1.18 1.6,2.03c0.06,0.05 0.12,0.1 0.21,0.16c0.68,0.54 1.32,1.11 1.99,1.65c0.21,0.08 1.67,0.99 2.05,1.19c1.97,1.06 1.79,0.96 3.19,1.39c2.61,0.81 5.26,1.34 7.96,1.4c0.5,0.01 1,-0.01 1.5,0c3.6,0.01 7.21,0 10.81,0c14.57,0 29.14,0 43.71,0c36.34,0 72.69,0 109.04,0c8.7,0 17.41,0.09 26.11,0c8.49,-0.1 16.74,-2.85 22.59,-9.29c5.37,-5.91 7.43,-12.03 7.46,-19.13c0.14,-29.24 0,-58.48 0,-87.72l0,0z" fill-rule = "winding" clip-path = "url(#54)" transform = "matrix(0.1937575,0,0,-0.1937596,21.19606,518.7735)" vector-effect="non-scaling-stroke" pen = "1.162551,1.162551" />
<path style="fill:#1E1F20;stroke:none; stroke-width:1" d="m1427.63,625.91c-6.36,12.7 -19.83,21.41 -33.99,22.23c-2.49,0.15 -5.01,0.07 -7.51,0.07c-32.47,0 -64.94,0 -97.41,0c-29.12,0 -58.25,0.08 -87.37,0c-26.8,-0.08 -49.56,-21.69 -52.89,-48.25c-1.25,-9.94 -0.55,-20.29 -0.55,-30.28c0,-37.16 0,-74.32 0,-111.48c0,-8.8 -0.14,-17.61 0,-26.41c0.38,-23.85 18.34,-43.3 42.54,-43.38c28.86,-0.1 57.72,0 86.57,0c32.68,0 65.36,0 98.03,0c1.94,0 3.88,0 5.81,0c29.92,0.57 51.79,27.93 51.94,56.8c0.05,11.15 0,22.31 0,33.46c0,36.74 0,73.48 0,110.22c0,12.79 0.79,25.15 -5.17,37.02m-23.03,-205.19c-0.65,-0.5 -0.33,-0.25 0,0l0,0l0,0zm5.76,82.88c0,-17.2 0,-34.39 0,-51.59c0,-5.26 0,-10.51 0,-15.77c0,-1.24 0.01,-2.49 0,-3.73c0,-0.23 -0.01,-0.47 0,-0.7c0.01,-0.45 -0.01,-0.97 -0.03,-1.42c0.07,1.8 -0.6,-2.6 -0.54,-2.95c-0.06,-0.21 -0.12,-0.39 -0.14,-0.44c-0.2,-0.47 -0.38,-0.95 -0.57,-1.43c0.31,0.88 -0.64,-0.79 -0.89,-1.38c-0.33,-0.41 -0.79,-0.98 -1.18,-1.45c-0.19,-0.09 -1.58,-1.36 -2.16,-1.82c-0.7,-0.44 -1.41,-0.87 -2.14,-1.26c-1.32,-0.71 -2.16,-1.04 -2.56,-1.17c-2.78,-0.97 -5.67,-1.56 -8.58,-1.61c-23.24,0 -46.47,0 -69.7,0c-34.98,0 -69.96,0 -104.94,0c-7.92,0 -16.72,-0.88 -24.54,0.79c-11.04,2.37 -20.3,12.92 -21.8,22.44c-0.48,3 -0.24,6.29 -0.24,9.33c0,32.6 0,65.2 0,97.81c0,15.44 0,30.89 0,46.33c0,3.51 -0.02,7.02 0,10.53c0,0.22 0,0.45 0,0.67c-0.01,0.39 0,0.79 0.02,1.19c0.01,-0.57 0.25,1.31 0.44,2.59c0.07,-0.08 0.64,1.76 0.89,2.61c0.01,0.02 0.01,0.03 0.02,0.05c0.01,0 0.21,0.33 0.43,0.7c-0.32,-0.6 0.9,1.18 1.6,2.03c0.06,0.05 0.12,0.1 0.2,0.16c0.68,0.54 1.32,1.11 1.99,1.65c0.22,0.08 1.67,0.99 2.06,1.19c1.96,1.06 1.79,0.96 3.18,1.39c2.61,0.81 5.26,1.34 7.96,1.4c0.5,0.01 1.01,-0.01 1.51,0c3.6,0.01 7.2,0 10.81,0c14.57,0 29.14,0 43.71,0c36.34,0 72.69,0 109.03,0c8.7,0 17.41,0.09 26.11,0c8.5,-0.1 16.74,-2.85 22.59,-9.29c5.37,-5.91 7.43,-12.03 7.46,-19.13c0.14,-29.24 0,-58.48 0,-87.72l0,0z" fill-rule = "winding" clip-path = "url(#54)" transform = "matrix(0.1937574,0,0,-0.1937597,21.19503,518.7905)" vector-effect="non-scaling-stroke" pen = "1.16255,1.162552" />
<path style="fill:#1E1F20;stroke:none; stroke-width:1" d="m1709.09,452.48c-0.03,-0.02 -0.06,-0.04 -0.1,-0.07c-0.08,-0.07 -0.17,-0.14 -0.26,-0.21c-0.34,-0.28 -0.48,-0.41 0.36,0.28" fill-rule = "winding" clip-path = "url(#54)" transform = "matrix(0.1937575,0,0,-0.1937595,21.19266,518.6548)" vector-effect="non-scaling-stroke" pen = "1.162551,1.162551" />
</g>
</g>
</g>
<text fill="Black" font-family="Segoe UI" font-size="20pt" x="50" y="86" transform = "matrix(2.339033,0,0,2.86706,-60.94353,-119.5819)" vector-effect="non-scaling-stroke" pen = "9.356272,11.46839" >CALENDOOR</text>
</g>
</g>
</svg>
